<svg xmlns="http://www.w3.org/2000/svg" fill="none" viewBox="0 0 192 192">
  <rect width="192" height="192" fill="url(#a)" rx="96"/>
  <path fill="#fff" fill-rule="evenodd" d="m99.7 11 5.3.8 2.3 9.4h.2l5-8.3 5.3.8-2.4 15.6-4.1-.6 1.3-9h-.1l-4.8 8.3-2.5-.3-2.2-9.5h-.1l-1.4 9-4.1-.6L99.7 11Zm21.8 20.9-4.2-2 11.4-12.1 5.3 2.5-1.9 16.5-4.2-2 .5-3.1-4.8-2.2-2 2.4Zm8-8.9-.7 5.4-3-1.4 3.7-4Zm14.8 3-10 12.3 8.3 6.7 2.2-2.7-5-4 7.8-9.6-3.3-2.7Zm2.3 22.5 12.4-9.7 2.7 3.4-9.8 7.6 4 5-2.8 2.1-6.5-8.4Zm18.5 24a9 9 0 0 0 4.5-.8 8.9 8.9 0 0 0 3.6-2.7 6.8 6.8 0 0 0 1.4-3.7 8 8 0 0 0-.7-4 8.1 8.1 0 0 0-2.4-3.1c-1-.8-2.3-1.3-3.6-1.4a9 9 0 0 0-4.5.8 9 9 0 0 0-3.7 2.7 7 7 0 0 0-1.4 3.7c-.1 1.3.1 2.6.7 4a8.2 8.2 0 0 0 2.4 3.1 7 7 0 0 0 3.7 1.4Zm4.7-6.2c-.5.5-1.1 1-2 1.3-.9.4-1.7.6-2.4.7a3 3 0 0 1-1.8-.5 3 3 0 0 1-1.2-1.4 3 3 0 0 1-.2-1.8c0-.6.4-1.1.9-1.6s1.2-1 2-1.3c1-.4 1.7-.6 2.4-.7.7 0 1.3.1 1.8.4.5.4.9.8 1.2 1.5.3.6.4 1.3.2 1.8a3 3 0 0 1-.9 1.6Zm-6.4 12 15.6-2.4 1 6.7a7 7 0 0 1-.1 3.1c-.3 1-.8 1.7-1.5 2.3-.7.6-1.7 1-2.8 1.2-1 .2-2 0-3-.3-.7-.4-1.4-1-1.9-1.7l-5.3 4-.7-4.5 4.7-3.5-.2-1.5-5.2.8-.6-4.3Zm9.3 4.4-.2-1.5 3.8-.6.2 1.5v1.3c0 .4-.2.7-.5 1a2 2 0 0 1-1 .4c-.5 0-.9 0-1.2-.2-.3-.1-.5-.3-.7-.7a4 4 0 0 1-.4-1.2Zm1.8 24-.4 4.4a7 7 0 0 0 2.7-.5 6 6 0 0 0 2-1.3c.6-.6 1.1-1.3 1.5-2a8.8 8.8 0 0 0 .1-6.7 6.8 6.8 0 0 0-2.4-3 9 9 0 0 0-4.4-1.5c-1.7-.1-3.2 0-4.5.6a6.8 6.8 0 0 0-3 2.4 8 8 0 0 0-1.3 3.8 8 8 0 0 0 .2 3 6.7 6.7 0 0 0 3 4 6 6 0 0 0 1.9.7l.5-4.3c-.4 0-.7-.2-1-.4a2.3 2.3 0 0 1-.9-1.5v-1c0-.7.3-1.3.6-1.8.4-.4 1-.8 1.6-1 .7-.1 1.5-.2 2.5 0 .9 0 1.7.2 2.3.5.6.4 1 .8 1.4 1.3.3.5.4 1.2.3 1.9 0 .4-.1.7-.3 1a2.3 2.3 0 0 1-1.4 1.3 3 3 0 0 1-1 .1Zm-12.4 10.6 1.7-4.3 12.9 10.6-2.2 5.4-16.6-.8 1.7-4.3 3.1.2 1.9-4.8-2.5-2Zm9.4 7.5-5.4-.4 1.1-3 4.4 3.3ZM153 152.9l5 1.5 3.5-3.4-8.9-2.3-2.1-9-3.5 3.4 1.4 5.2-5.3-1.4-3.5 3.5 9 2.1 2.2 9 3.5-3.4-1.4-5v-.2Zm-23.4 15 3.8-2.1.7.7.9.4h1c.3 0 .6-.2 1-.4.6-.4 1-.8 1.3-1.4.3-.5.3-1.1.2-1.8 0-.7-.3-1.5-.8-2.3-.5-.8-1-1.4-1.5-1.9-.6-.4-1.2-.6-1.8-.7-.5 0-1.1.1-1.7.5l-.9.6-.5.8c-.1.3-.2.6-.1.9 0 .3 0 .6.2 1l-3.9 2-.5-2a6.6 6.6 0 0 1 1.5-4.6 8 8 0 0 1 2.4-2c1.2-.7 2.5-1.1 3.8-1.1 1.3 0 2.6.3 3.8 1 1.2.7 2.2 1.8 3 3.4 1 1.5 1.4 3 1.4 4.3 0 1.4-.4 2.6-1 3.8a8.9 8.9 0 0 1-5.5 3.7c-1 .2-1.8.2-2.6 0a6 6 0 0 1-2.3-.9 7 7 0 0 1-1.9-1.9Zm-4 8.1-4.3-15.2-10.3 2.8 1 3.4 6-1.7 3.4 11.9 4.1-1.2ZM96.6 181l-4.3.1-.2-10.1c0-1.2.2-2.3.8-3.2.5-.8 1.3-1.5 2.3-2 1-.5 2.2-.8 3.6-.8 1.3 0 2.5.2 3.6.6 1 .5 1.8 1.1 2.4 2 .6.8 1 1.9 1 3l.2 10.2h-4.3l-.3-9.7c0-.4 0-.9-.3-1.3-.2-.3-.5-.6-1-.8-.3-.2-.8-.3-1.3-.3-.4 0-.9.1-1.3.3l-.8 1c-.2.3-.3.8-.3 1.3l.2 9.7Zm-19.8-6c-.3-.4-.3-.8-.3-1.3l-4-1a4.8 4.8 0 0 0 1.8 5.1 8 8 0 0 0 3.1 1.4c1.2.3 2.4.3 3.4.1 1-.2 2-.6 2.6-1.2.7-.6 1.2-1.4 1.4-2.3.3-1.2.1-2.3-.5-3.2a7.3 7.3 0 0 0-2.9-2.2l-1.4-.7a8 8 0 0 1-1.3-.7l-.6-.7a1 1 0 0 1 0-.6c0-.3.1-.5.3-.6.2-.2.5-.3.8-.3h1.2l1.3.6c.3.3.6.6.7 1 .1.3.2.8 0 1.2l4 1c.4-1.3.3-2.4 0-3.4a5 5 0 0 0-2-2.4c-.8-.6-2-1-3.3-1.4a9.4 9.4 0 0 0-3.5-.2c-1 .1-1.8.5-2.5 1-.7.7-1.1 1.4-1.4 2.5 0 .5-.1 1.1 0 1.6 0 .6.2 1.1.5 1.6s.7 1 1.2 1.4l2 1.2 1.2.6 1 .4.5.5c.2.2.3.3.3.5v.5c0 .3-.2.4-.4.6l-.7.3-1-.1c-.7-.2-1.2-.5-1.5-.8Zm-16.7-2 6.8-14.2 3.9 1.9-6.8 14.2-3.9-1.8Zm-9.1-18.4-4.4 10.7 3.9 3 5.6-15.6-4.6-3.6-14 9.2 4 3 9.4-6.8Zm-5.5-10.7-12.5 9.7-7-9 2.8-2.2 4.3 5.7 2.2-1.7-4-5.2 2.7-2 4 5 2.2-1.6-4.4-5.6 2.8-2 7 9ZM24.5 114l-10.1 5.8 1.1 4.7 14.2-8.8-1.4-5.7-16.6-1.3 1.1 4.7 11.6.5v.1Zm2.3-11.8L11 102l.2-11.4h3.4v7.2h2.7v-6.5h3.5V98h2.6l.1-7H27l-.2 11.3ZM12 81.7l15.3 4 1.1-4-5-1.4.3-1.4 5.8-1.4 1.2-4.5-6.5 1.6c-.2-.9-.6-1.7-1.2-2.3a5.2 5.2 0 0 0-2.5-1.4c-1.1-.3-2.1-.3-3 0-1 .2-1.7.7-2.3 1.4a7 7 0 0 0-1.4 2.8L12 81.6Zm8.1-2.3-3.7-1 .4-1.4.5-1.2c.3-.3.5-.5.9-.6a2 2 0 0 1 1.1 0c.4 0 .8.3 1 .5l.4 1c0 .4 0 .8-.2 1.3l-.4 1.4Zm0-21 14 7.2-1.9 3.8-14.1-7.2 2-3.8Zm5.2-9.6 12.4 9.9 2.7-3.4-4.9-3.8 3.9-4.8-2.7-2.2-3.9 4.8-2-1.7 4.2-5.3-2.7-2.2-7 8.7Zm16-17.3 10.1 12.1-3.3 2.8L38 34l3.3-2.7Zm8.7-6.8 7.4 14 10-5.4-1.5-3-6.3 3.3-1.3-2.4 5.8-3-1.6-3.1-5.8 3-1.3-2.4 6.3-3.3-1.6-3L50 24.6Zm28.2 5-6 1.3-3.7-15.3 5.9-1.4c1.6-.4 3-.4 4.3 0 1.3.3 2.4 1 3.3 2 1 1 1.6 2.2 2 3.8.4 1.6.4 3 0 4.4-.3 1.3-1 2.4-2 3.2-1 1-2.3 1.6-3.8 2Zm-2.6-3.2 1.6-.4c.7-.2 1.3-.4 1.8-.8s.8-.9 1-1.6c0-.6 0-1.5-.2-2.6a6 6 0 0 0-1-2.4c-.5-.5-1-.8-1.6-1-.6 0-1.4 0-2.2.2l-1.4.3 2 8.3Zm-8.2 36.4c-2.5 0-5-.1-7.4.1-.8.5-1.5 1-1.7 2-.2 1 .4 1.9 1 2.7 1.1 1.7 2.5 3.4 4 5l1.5 2 10.5 12.8L84 98l1.4 1.7c1 1.4 2.2 2.8 3.4 4.1.7.8 1.7 1.7 2.9 1.9.5 0 1 0 1.5-.3.5-.4.8-1 .9-1.7.2-1.5-.8-2.8-1.6-4a96.3 96.3 0 0 0-6-7.2L66.5 68.1c2.8.2 5.6.1 8.3.1h7l15 18.4 2.3 2.8a93 93 0 0 1 5.4 6.8c-2.4 3-4.8 6-7.3 8.8-5.2 6.4-10.5 12.7-15.5 19.2H66.6L70 120l5.2-6.3 1.9-2.2c1.7-2 3.4-4 4.7-6 .5-.9 1-2 1-3 0-.6-.3-1-.7-1.3-.6-.5-1.6-.6-2.3-.5-.7 0-1.2.5-1.7 1-2.3 2.2-4.3 5-6.3 7.5l-2.6 3.3-3.6 4.4-5.4 6.5c-.8 1.1-1.9 2.7-1.7 4.2 0 .6.3 1 .7 1.4.5.4 1.2.6 1.9.7h5.8l3.4-.1H74c3.3.2 7.2.3 9.2 0 .8 0 2-1.4 2.7-2 2.3-2.5 4.4-5.2 6.6-7.9l2.6-3.3 4-5c3-3.6 6-7.2 8.9-11l2 2.6 2.6 3c4.8 5.8 14.3 17.2 14.3 18.3a445.9 445.9 0 0 0-14.7 0l-1.4-1.9c-2.4-3.1-6.4-8.4-8.5-8.5-.5 0-1.3.5-1.7.8a2 2 0 0 0-.7 1.4c0 2.4 7 10.3 8.7 12.2l1.5 1.3h.5c4.6 0 23 .5 24.3-.7.4-.4.6-1 .6-1.6 0-.7-.2-1.4-.5-2a38.2 38.2 0 0 0-5.6-7L118 104.2l-1.7-2.1c-1.6-1.9-3.3-3.8-4.6-5.9 3.6-5 7.8-10 11.9-14.8a529.3 529.3 0 0 0 11.4-14.2c.4-.7.7-1.5.5-2.4 0-.5-.2-1-.7-1.3-1.7-1.2-21.7-.8-24.8-.6a43 43 0 0 0-10 13.2c0 .6 0 1.3.5 1.8.3.5 1 1 1.6 1 .8 0 1.6-.6 2.2-1a27 27 0 0 0 4.1-4.8c1.3-1.8 2.5-3.5 4.2-4.8h6c3 0 6 .1 8.5-.2-.2 1.2-9 11.7-14.6 18.5L108 92 92.7 73c-.7-.7-1.4-1.6-2-2.6a39 39 0 0 0-6.1-6.8c-.7-.5-1.7-.6-2.5-.7-2.7-.3-5.6-.2-8.4-.1h-6.3Z" clip-rule="evenodd"/>
  <defs>
    <linearGradient id="a" x1="96" x2="96" y1="0" y2="192" gradientUnits="userSpaceOnUse">
      <stop stop-color="orange"/>
      <stop offset="1" stop-color="#D56300"/>
    </linearGradient>
  </defs>
</svg>
