<svg xmlns="http://www.w3.org/2000/svg" fill="none" viewBox="0 0 578 80"><rect width="80" height="80" x="14" fill="url(#a)" rx="12.5"/><path fill="#fff" d="m10 46.8-.8-.8-.6-.5-.6-.2a4 4 0 0 1-.4-.4l-.1-.2v-.6l.4-.3.3-.3.1-.2V43l-.3-.3v-.1l-.4-.2-.4-.3-.4-.5a10.1 10.1 0 0 1 .4-.6l.2-.2v-1l-.2-.1-.1-.1-.5-.1h-.1l-.3-.3-.3-.3h-.1l-.5-.1h-.6l-.2.3-1.2.2h-.1l-.8-.3-.6-.4-1-1-.6-.6a39.3 39.3 0 0 0-.2-1.3v-2.2h.1l.9-1.6 1-.8 1.7-.8 1.6-.5 1.5-.8.8-.3 1.6-.4 1.2-.7 2.4-1.6 1-.7.8-.5 1-.3h1.2l1.1-.2.9-.1 1-.5.9-.3.8-.8.5-.5 1-1 .7-.5h.1l.8-.2.7-.3.8-.7.3-.4.4-.5.7-.6.6-.4h.8c0 .2.2.4.3.4l.6.3a3.7 3.7 0 0 0 .5-.4l.4-.6s.1-.6.3-.7c.1-.2.3-.5.5-.5l.6-.2a11.6 11.6 0 0 0 1-.1l.4.2.4.2a8.4 8.4 0 0 0 .6 0l.8-.5.8-.8.6-.8.6-.4a9.3 9.3 0 0 1 .9-.3h1l.5-.3.6-.2h3l1-.2s.8-.1 1-.3a6.8 6.8 0 0 1 1.5-.7h1a14 14 0 0 1 1.2-.1l.6-.4.6-.4.6-.5.7-.2h.2l.5.4.3.2.9.3a94 94 0 0 0 2-.3 15.8 15.8 0 0 0 .7-.5l.5-.4s.3-.3.5-.3l.6-.2.2.1a4 4 0 0 0 1 .7l1 .5 1.2.3h2.2l.7-.2 1.3-.4.3-.4a28.8 28.8 0 0 0 .7-.6l.3-.3.5-.3a9.3 9.3 0 0 1 .7-.2h.6l.2-.2.1-.1.4-.1h.2l.9.4v.2l.3.4V10.2l-.2.3-.4.3-.5.3-.7.4a16.3 16.3 0 0 1-1 .1l-.2.1-.6.2-.7.2-.4.3-.5.3-.5.4a17 17 0 0 0-1 0h-.7l-.3-.2h-.9l-.6.2-.6.2-.4.2v.1l-.3.4-.1.4v.6l.2.6.4.6a18.4 18.4 0 0 1 .2.7l.4.2.4.4a13.2 13.2 0 0 0 1 .2l.8-.1.7-.1h.1l.7-.4.5-.7.4-.4.6-.4.4-.2H67.3l.2.2.3.5.3.3.3.4a3.2 3.2 0 0 1 .3.6v.7l-.3.8-.2.4-.3.5-.5.4-.5.2h-.1l-.3.2-.3.3-.5-.1a107 107 0 0 1-.6-.3l-.6-.2a38 38 0 0 1-1 0l-.2.1h-.8l-.3.2v.1l-.3.6-.1.6a1.9 1.9 0 0 0 .2.6l.1.6v.4l.3.2.2.6.4.5c0 .1 0 .7.2.8l.7.8a55.3 55.3 0 0 0 1.1 1l1.2.8.7.7.6.4.5.5.5.5.7.3h2a5.6 5.6 0 0 1 .6-.4h.8l.7-.1h.1l.3-.3H74.6l.1-.1.4-.4.5-.4.5-.7.2-.4.6-.4a8 8 0 0 1 1-.2h.9l.2.2a5.7 5.7 0 0 0 .8.8 5.4 5.4 0 0 0 .3.6l.3.4.7.5.6.3h.4l.1.1.5.4.4.4.6.8.6.6.5.6a3.3 3.3 0 0 1 .6.3l.5.5V34.6c.1.1.2.5 0 .7 0 .2-.5.7-.5.7l-.3.4-.4.6a5.7 5.7 0 0 1-.5.6l-.2.3-.2.6-.4.6-.2.4a5.7 5.7 0 0 1-.3.6v.7l-.2.5v.5l-.4.4-.4.4c-.1.2-.3.3-.4.3H81l-.1-.1-.3-.2-.2-.2h-.3a3.5 3.5 0 0 1-.4.2l-.4.3-.3.4a7.3 7.3 0 0 1-.3.8l-.1.7v.7c.1.1.2.4 0 .8a6.7 6.7 0 0 1-.3 1l-.3.4-.6.4-.5.3-2.2.8-1.4.8-1 .7-1 .7-.9.7-.7.7-1 .9-.6.8-.6 1.1-.2 1.3-.2 1v.1l-.4 1.3-.2 1-.4.9-.9 1-1 1.2-1 .9-1.4.8-1 1-1 .7h-.2l-1 .3h-.9l-.5.3h-.7l-.7-.1-.6-.2h-.5l-.8.4-1 .3-.7.5-1 1-.7.9-.7.7-.4.4-.5.4-.6.3h-1.5l-.2-.1-.4-.6-.4-.4-.4-.6v-.8l-.2-.6-.4-.7-.7-.7-.5-.4-.5-.5-.8-.7V65a13 13 0 0 1 .4-.5l.4-.1.1-.1.2-.5-.1-.5-.7-.5-1-.7-.8-.6-.6-.2a9 9 0 0 1-.9-.3l-.9-.2h-1.9l-1.3.2h-.9a39 39 0 0 0-1.6-.3l-.8.1h-.4s-.8.2-1 0a35.2 35.2 0 0 0-1.3-.8l-.3-.8a287.3 287.3 0 0 1-.4-1l-.4-.6a16.8 16.8 0 0 1-1.3-1.6l-.7-1.1c0-.1-.2-1 0-1.3V51l.1-.7v-1l.1-1 .7-.9a49.3 49.3 0 0 0 .5-.9l.2-.6-.1-.6V44.5s.2-.4.1-.5l-.3-.5-.3-.5-.3-.6a3.2 3.2 0 0 0-.2-.5l-.5-.8H26l-.7-.5-1-.3a2 2 0 0 0-.5-.3 10 10 0 0 1-1-.2h-.6a16.8 16.8 0 0 0-1.1 0l-.6.2c-.2 0-.4.3-.5.3l-1 .2h-.7l-.7-.2h-1v.1s-.6.1-.6.3l-.2.4h-.2l-.3.1-.7.1a7 7 0 0 0-.5.3l-.7.6-.3.3-.4.4-.2.5v.5h.1l.2.4v.4a17 17 0 0 0-.8.8l-.3.4-.1.2-.4.4-.1.1-.5.1-.2.1H10ZM114.9 62V17.2h9.5l13 19.3 13.1-19.3h9.5V62h-8.7V30.9l-13.8 20.3L123.6 31v31H115Zm71 0-.2-6.5v-9.7c0-2-.2-3.6-.7-5a6 6 0 0 0-1.9-3 5 5 0 0 0-3.5-1.2c-1.4 0-2.6.3-3.7.9-1.1.6-2 1.5-2.8 2.7l-7.5-2.5c.6-1.4 1.5-2.7 2.7-4 1.1-1.3 2.6-2.4 4.4-3.2 2-.8 4.2-1.3 6.9-1.3 3.2 0 6 .7 8 1.9 2.2 1.2 3.8 3 4.9 5.2 1 2.3 1.5 4.9 1.5 8l-.2 17.7h-7.9Zm-9 .8a14 14 0 0 1-8.9-2.6A8.8 8.8 0 0 1 165 53c0-3.4 1.1-6 3.4-7.7 2.3-1.8 5.5-2.6 9.6-2.6h8.2v6.2h-5.2c-2.8 0-4.7.4-5.8 1a3 3 0 0 0-1.6 2.8c0 1 .4 1.7 1.3 2.3.8.5 2 .7 3.6.7a7 7 0 0 0 3.7-1 8 8 0 0 0 2.6-2.5c.7-1 1-2.1 1-3.3h2c0 4.4-.8 7.8-2.5 10.2-1.6 2.5-4.3 3.7-8.2 3.7Zm22-.8V17.2h8.4V62h-8.5Zm13.7 0V17.2h8.5V62h-8.5Zm29 .8A16 16 0 0 1 224.7 46c0-3.3.6-6.2 2-8.7a15 15 0 0 1 6-5.9 17 17 0 0 1 8.6-2.2c3.3 0 6.2.8 8.7 2.2a15 15 0 0 1 5.9 5.9c1.4 2.5 2 5.4 2 8.7 0 3.3-.6 6.2-2 8.7a15.5 15.5 0 0 1-6 6 17 17 0 0 1-8.5 2Zm0-7.8a7.5 7.5 0 0 0 6.8-4.3c.7-1.4 1-3 1-4.7a10 10 0 0 0-1-4.6 7.8 7.8 0 0 0-7-4.4c-1.6 0-3 .4-4.2 1.2a8 8 0 0 0-2.8 3.2 10 10 0 0 0-1 4.6c0 1.7.3 3.3 1 4.7a7.9 7.9 0 0 0 7.1 4.3Zm26-9.8c0-3.5.7-6.3 2-8.6a13.4 13.4 0 0 1 12-6.7V38c-2 0-4 .2-5.7.7-1.7.4-3 1.2-4.1 2.3-1 1-1.6 2.4-1.6 4h-2.5ZM261.8 62V30h8.5v32h-8.5Zm37.8.8c-3.3 0-6.3-.7-9-2.1a15.7 15.7 0 0 1-6-6 17.3 17.3 0 0 1-2.2-8.7c0-3.3.8-6.2 2.2-8.7 1.5-2.5 3.5-4.5 6-5.9 2.6-1.4 5.5-2.2 8.9-2.2 3.2 0 6 .8 8.7 2.4 2.7 1.6 4.6 3.9 5.8 6.8l-8 2.9a6.7 6.7 0 0 0-2.8-3 7.7 7.7 0 0 0-4.1-1.1 7.6 7.6 0 0 0-7 4.2 10 10 0 0 0-1 4.6c0 1.7.3 3.3 1 4.6a8 8 0 0 0 11.3 3 7.3 7.3 0 0 0 2.8-3.2l8 2.8c-1.3 3-3.2 5.4-5.8 7a16 16 0 0 1-8.8 2.6Zm37-.8-.3-6.5v-9.7c0-2-.3-3.6-.7-5a6 6 0 0 0-1.9-3 5 5 0 0 0-3.5-1.2c-1.4 0-2.6.3-3.7.9-1.1.6-2 1.5-2.9 2.7l-7.4-2.5c.6-1.4 1.5-2.7 2.6-4 1.2-1.3 2.7-2.4 4.5-3.2 1.9-.8 4.2-1.3 6.9-1.3 3.2 0 6 .7 8 1.9 2.2 1.2 3.8 3 4.8 5.2 1.1 2.3 1.6 4.9 1.6 8l-.2 17.7h-7.9Zm-9 .8a14 14 0 0 1-9-2.6 8.8 8.8 0 0 1-3.1-7.2c0-3.4 1-6 3.3-7.7 2.4-1.8 5.6-2.6 9.7-2.6h8.1v6.2h-5.1c-2.8 0-4.7.4-5.8 1a3 3 0 0 0-1.6 2.8c0 1 .4 1.7 1.3 2.3.8.5 2 .7 3.6.7a7 7 0 0 0 3.7-1 8 8 0 0 0 2.6-2.5c.6-1 1-2.1 1-3.3h2c0 4.4-.8 7.8-2.5 10.2-1.6 2.5-4.4 3.7-8.2 3.7Zm18.8-.8 17.3-24.5 14.1-20.3h10.4l-17 23.3L356.9 62h-10.5Zm31.6 0-14.3-21.5-17-23.3H357l14.1 20.2L388.5 62h-10.6Zm26.3.8c-3.3 0-6.3-.7-8.9-2.1a15.7 15.7 0 0 1-6-6A17.3 17.3 0 0 1 387 46c0-3.3.7-6.2 2.2-8.7 1.4-2.5 3.4-4.5 6-5.9 2.5-1.4 5.5-2.2 8.8-2.2 3.2 0 6.1.8 8.8 2.4 2.6 1.6 4.5 3.9 5.7 6.8l-8 2.9a6.7 6.7 0 0 0-2.7-3 7.7 7.7 0 0 0-4.2-1.1 7.5 7.5 0 0 0-7 4.2 10 10 0 0 0-1 4.6c0 1.7.4 3.3 1 4.6a8 8 0 0 0 11.3 3 7.3 7.3 0 0 0 2.8-3.2l8 2.8c-1.2 3-3.2 5.4-5.8 7a16 16 0 0 1-8.8 2.6Zm17.6-.8V17.2h8.5V62h-8.5Zm35 0-.5-5.9V30h8.4v32h-8ZM435 46.4V30h8.4v16.4h-8.4Zm8.4 0c0 2.1.3 3.8.7 5 .5 1.2 1.2 2.1 2.1 2.7 1 .5 2 .7 3.2.7 2.2 0 3.9-.6 5-2a9.4 9.4 0 0 0 1.8-6h2.8a22 22 0 0 1-1.5 8.7c-1 2.3-2.4 4.1-4.2 5.4a10.9 10.9 0 0 1-6.4 1.9 13 13 0 0 1-6.5-1.6 9.8 9.8 0 0 1-4-4.7c-1-2.2-1.4-5-1.4-8.4v-1.7h8.4Zm38.6 16.4c-2 0-4-.3-5.8-1a12.5 12.5 0 0 1-8-7l7.3-3.3c.7 1 1.5 2 2.6 2.7 1.1.7 2.4 1 3.9 1 1.4 0 2.5-.1 3.2-.5.8-.4 1.2-1 1.2-1.8s-.3-1.3-1-1.7c-.6-.3-1.4-.7-2.5-1l-3-.7c-3-.8-5.4-2-7.2-3.8a8.6 8.6 0 0 1-2.6-6.2c0-3.2 1-5.8 3.1-7.6 2.1-1.8 5.1-2.7 9-2.7 2 0 3.9.3 5.6 1 1.7.5 3.2 1.4 4.5 2.4 1.2 1 2 2.3 2.5 3.7l-7 3.2c-.2-.8-1-1.5-2.1-2a8 8 0 0 0-3.5-.8c-1.1 0-2 .2-2.7.7-.6.5-.9 1.2-.9 2 0 .6.3 1 1 1.4.5.4 1.4.7 2.5 1l4.2 1A11 11 0 0 1 494 49c.6 1.4.9 2.7.9 4 0 2-.6 3.7-1.7 5.2a10.9 10.9 0 0 1-4.6 3.4c-2 .8-4.1 1.2-6.6 1.2Zm16.4-.8V30h8.5v32h-8.5Zm4.2-37.2c-1.2 0-2.4-.5-3.4-1.4a4.7 4.7 0 0 1 0-6.8 4.7 4.7 0 0 1 6.8 0c1 .9 1.5 2 1.5 3.4 0 1.3-.5 2.4-1.5 3.4s-2 1.4-3.4 1.4ZM523.5 62l12.1-32h8.7l-13.1 32h-7.7Zm-.8 0-13-32h8.6l12.2 32h-7.8Zm37.2.8c-3.1 0-6-.7-8.3-2.1a15.8 15.8 0 0 1-5.8-6 18 18 0 0 1-2-8.7c0-3.3.6-6.2 2-8.7 1.5-2.5 3.5-4.5 6-5.9a17 17 0 0 1 8.6-2.2 15.1 15.1 0 0 1 13.4 8.7c1.5 2.9 2.2 6.3 2.2 10.3h-24.3l.8-.7c0 1.6.4 3 1.2 4.1.8 1.2 1.8 2 3 2.7a9.6 9.6 0 0 0 8.4-.2c1.1-.7 2-1.7 2.6-3l7.5 3a14.5 14.5 0 0 1-8.6 7.6c-2 .7-4.1 1-6.7 1Zm-7-20-.7-.8h15.4l-.7.7c0-1.5-.4-2.7-1-3.6-.8-1-1.7-1.6-2.8-2a7.8 7.8 0 0 0-9 2c-.8.9-1.1 2.1-1.1 3.6Z"/><defs><linearGradient id="a" x1="54" x2="54" y1="0" y2="80" gradientUnits="userSpaceOnUse"><stop stop-color="#FCC230"/><stop offset="1" stop-color="#FC7E30"/></linearGradient></defs></svg>