<svg xmlns="http://www.w3.org/2000/svg" fill="none" viewBox="0 0 946 160"><rect width="160" height="160" x="28" fill="url(#a)" rx="25"/><path fill="#111" d="M20.1 93.6 18.3 92s-1-1-1.2-1a7 7 0 0 1-1.2-.5l-.8-.7-.1-.3v-1c0-.2 0-.3.2-.4l.7-.6.6-.5.1-.4v-.5l-.1-.2-.4-.6-.1-.1-.7-.5-1-.5c0-.1-.8-.9-.7-1a20.3 20.3 0 0 1 .8-1.2l.4-.5.2-.3-.1-1.3-.1-.3-.4-.3-.2-.1-1-.2-.2-.1-.7-.6-.5-.5-.3-.1-.9-.1c-.2 0-1-.2-1.1 0l-.5.5c-.2.3-2 .5-2.5.5h-.2L4.8 78l-.2-.1-1-.9S2 75.4 1.9 75.4C1.6 75.3.4 74.2.4 74a78.5 78.5 0 0 0-.4-2.7v-2.8L.2 67v-.2l1.8-3H2l1.8-1.6H4l3.3-1.5 3.2-1.1 3-1.5 1.7-.6 3.2-.9 2.4-1.4 4.8-3.2 2.1-1.4 1.4-1 .2-.2 2-.4h2.4l2.2-.4 1.7-.3 2-.9 1.8-.7h.1l1.5-1.5 1-1 2-1.9 1.4-1 .2-.2 1.6-.2h.1l1.4-.8 1.4-1.2v-.1l.7-.9.9-1 1.4-1.2s1-.7 1.2-.7h1.1c.1 0 .3 0 .4.2l.5.6c.1.2 1.1.6 1.2.6a7.4 7.4 0 0 0 1.2-.7c.2-.3.7-1 .7-1.3.1-.1.3-1.2.6-1.5.2-.3.6-.8 1-1l1.2-.4a23.2 23.2 0 0 0 1.9-.2l.9.5.9.5A16.8 16.8 0 0 0 69 32l1.5-1h.1l1.5-1.6 1.2-1.4 1.2-1a18.6 18.6 0 0 1 1.7-.5h2.2l1-.6 1.2-.4H86.6l2-.4c.1 0 1.5-.3 1.8-.7a13.6 13.6 0 0 1 3.2-1.3h1.8A28 28 0 0 1 98 23l1.2-.7 1.2-.8 1.2-1h.2l1.2-.3h.4l1 .7.7.4 1.6.5a187.2 187.2 0 0 0 2.4 0l1.7-.5a31.2 31.2 0 0 0 1.5-1l.8-.7 1-.8 1.4-.2.3.1a7.9 7.9 0 0 0 2.1 1.3l1.7 1.1.2.1 2.3.4h4.6l1.4-.4 2.4-.6.3-.2.5-.7a55.2 55.2 0 0 0 1.3-1.1l.6-.7.2-.1.9-.5a18.6 18.6 0 0 1 1.2-.5h1.2c.2 0 .4 0 .5-.3 0-.1.1-.2.3-.2l.7-.2h.3l1.9.9.2.2.4 1V20.3l-.5.5v.1l-.8.6-1 .7-1.3.8a32.8 32.8 0 0 1-1.9.1l-.6.3-1 .3-1.4.4h-.1l-.8.5-1 .7s-.8.7-1 .7a34 34 0 0 0-1.9.3l-1.5-.3-.6-.2h-1.9l-1.1.3-1.1.5-.9.4-.1.2-.4.6-.3 1V30l.4 1v.1c.1.2.7 1 .7 1.2a35.6 35.6 0 0 1 .5 1.4l.8.4v.1l.7.7a26.4 26.4 0 0 0 2.2.4l1.4-.3 1.6-.1h.2l1.3-.8.2-.2.8-1.3.8-.7 1.2-.7.8-.6h.8l.3.1.5.4v.1l.6.8.7.7c0 .2.4.7.5.7a6.4 6.4 0 0 1 .6 1.3V36.4l-.5 1.4-.4.8-.7 1-1 .9a21.7 21.7 0 0 0-1.2.4l-.6.4a3 3 0 0 1-.6.5 199.6 199.6 0 0 1-2.3-.8l-1-.4a77.1 77.1 0 0 1-2 0l-.4.3h-.4l-.9-.2-.3.1-.7.5-.1.1-.5 1.1-.2 1.3a3.8 3.8 0 0 0 .4 1.2l.2 1.1v.7s0 .2.2.3l.3.3.1.2.5 1 .6 1c0 .2.3 1.5.5 1.6l1.4 1.7a111.6 111.6 0 0 0 2.2 1.9l2.4 1.5v.1l1.5 1.4 1.2.8 1 1 1 1v.1l1.2.5h4.1a11.3 11.3 0 0 1 1.3-.9h1.5l1.4-.1.3-.1.5-.5.4-.1h1.3l.4-.1.8-.8.8-.8v-.1l1-1.2.5-.9.2-.1 1-.7a16.1 16.1 0 0 1 2-.5l1.8.3.3.1a11.3 11.3 0 0 0 1.8 1.7l.5 1.1.5.8.1.1 1.5 1 1 .7H164.3c.1 0 .2 0 .3.2l1 .7.7.9 1.2 1.4c.1.2 1 1 1.2 1.4l1 1a6.7 6.7 0 0 1 1.2.7l1 1 .1.3v1.5c.1.2.2 1.1 0 1.4l-1.1 1.5-.6.7-.8 1.1a11.4 11.4 0 0 1-1 1.2l-.4.8-.5 1-.7 1.3-.4.8a11.2 11.2 0 0 1-.5 1.1l-.2 1.5v.2l-.3.8-.1 1-.7.8-.9.9c-.2.2-.5.5-.7.5h-.7l-.3-.2-.5-.5-.5-.3h-.5l-.8.3-.1.1-.9.7s-.4.3-.5.8a14.6 14.6 0 0 1-.6 1.4l-.2 1.4v.1l.1 1.3v.1c.1.2.3.8 0 1.6a13.4 13.4 0 0 1-.8 2.1c0 .2-.4.5-.6.7l-1 .7-1.2.7-4.3 1.6h-.1l-2.7 1.7-2.1 1.4-1.8 1.3-1.9 1.4-1.3 1.4-2 1.8-1.4 1.5v.1l-1.1 2.2v.2l-.4 2.3-.3 2.2v.1l-1 2.5v.1l-.2 1.9-1 1.8-1.6 2-2 2.5-2 1.8h-.1l-2.8 1.6-2.1 1.9-2 1.4h-.2l-2 .6h-.1l-1.7.2h-.2l-.9.6h-1.5l-1.3-.4-1.2-.3h-.1l-.8.1h-.1l-1.5.6-2 .8h-.1l-1.4.8-.1.1-1.9 2-1.5 1.8-1.2 1.4-1 .8-.9.9H98l-1 .5h-3.1c-.2 0-.3 0-.4-.2l-.8-1.1-.8-.9h-.1l-.6-1.2v-1.7l-.4-1.2-.8-1.3-.1-.1-1.4-1.4-1-.7s-1-.8-1-1c-.2 0-1.5-1-1.5-1.4 0-.4-.2-1.4 0-1.7a25.5 25.5 0 0 1 .8-1l.7-.4c.2 0 .2 0 .3-.2l.3-.8c0-.2 0-.8-.3-1.1-.3-.4-1.2-1-1.2-1l-2-1.5-1.8-1-1.2-.6-1.6-.5-1.9-.4-1.7-.1h-1c-.1 0-.5.2-1.1.2-.9.2-2.4.2-2.6.2H68.7a75.2 75.2 0 0 0-3-.5l-1.7.2-.7.2c-.3 0-1.6.2-2.1-.1a70.8 70.8 0 0 0-2.6-1.6l-.7-1.6a640.8 640.8 0 0 1-.6-2l-1-1.4a33.6 33.6 0 0 1-2.4-3.2l-1.5-2.1c0-.3-.4-2-.2-2.7.2-.6.3-2.3.3-2.5V102l.2-1.4v-2c0-.2-.2-1.6.1-2l1.3-1.8a100.9 100.9 0 0 0 1-1.8l.4-1.2v-.2l-.2-1v-.2l.3-1.4v-1l-.7-1-.5-1a5 5 0 0 1-.5-1.1 6.4 6.4 0 0 0-.4-1.2l-1.2-1.5-1.4-1h-.2l-1.7-.5h-.2c-.2-.3-.9-.7-1-.7a20 20 0 0 1-1.9-.3l-1.2-.2a33.6 33.6 0 0 0-2.3.1l-1.2.4h-.1l-.8.6a69.3 69.3 0 0 1-2 .3h-1.4l-1.6-.3h-.1l-1.7.2h-.1c-.2 0-1.1.3-1.2.5l-.4.8c-.1.2-.3.2-.4.3h-.7l-1.3.2a14 14 0 0 0-1 .6l-1.3 1.1-.7.7-.8.9-.4.8v.3l.1.7.1.2.4.6v.7l-.2.2a33.3 33.3 0 0 0-1.3 1.5l-.7.8v.1l-.2.5-.8.8-.2.1-.9.3-.5.2h-.4l-.5-.1ZM229.7 125V35.4h19.1l26.1 38.7L301 35.4h19V125h-17.4V62.8l-27.7 40.7-27.6-40.6V125h-17.6Zm142.2 0-.5-13V92.7c0-3.8-.5-7.1-1.3-9.8a12 12 0 0 0-3.9-6.3c-1.7-1.5-4-2.3-7-2.3-2.7 0-5.2.6-7.4 1.8a15 15 0 0 0-5.7 5.5l-14.8-5.1c1.2-2.8 3-5.4 5.2-8 2.3-2.6 5.3-4.8 9-6.4a33 33 0 0 1 13.7-2.5c6.5 0 11.9 1.2 16.1 3.7 4.4 2.5 7.6 6 9.6 10.5 2.2 4.4 3.2 9.7 3 15.8l-.3 35.5H372Zm-18 1.5a28 28 0 0 1-17.9-5 17.6 17.6 0 0 1-6.3-14.5c0-6.9 2.3-12 6.8-15.4 4.6-3.5 11-5.3 19.4-5.3H372V99h-10.4c-5.5 0-9.3.7-11.5 2a6 6 0 0 0-3.2 5.5c0 2 .9 3.4 2.6 4.5a14 14 0 0 0 7.2 1.6c2.8 0 5.2-.7 7.4-2s4-3 5.2-5c1.3-2.2 2-4.4 2-6.6h4c0 8.7-1.6 15.5-5 20.3-3.2 4.9-8.7 7.3-16.5 7.3Zm43.7-1.5V35.4h17V125h-17Zm27.7 0V35.4h16.9V125h-17Zm57.7 1.5A31.9 31.9 0 0 1 449.5 93a35 35 0 0 1 4.2-17.4c2.8-5 6.7-9 11.8-11.8a34 34 0 0 1 17.3-4.3c6.5 0 12.3 1.4 17.4 4.3 5 2.8 9 6.8 11.7 11.8a35 35 0 0 1 4.3 17.4 35 35 0 0 1-4.3 17.4 31 31 0 0 1-11.7 12 34 34 0 0 1-17.2 4.1Zm0-15.6a15 15 0 0 0 13.8-8.6c1.4-2.7 2-5.8 2-9.3 0-3.5-.6-6.6-2-9.2a15.5 15.5 0 0 0-14-8.7c-3.1 0-5.9.7-8.4 2.3a15.8 15.8 0 0 0-5.6 6.4c-1.4 2.6-2 5.7-2 9.2 0 3.5.6 6.6 2 9.3A15.7 15.7 0 0 0 483 111Zm52.4-19.6c0-6.9 1.3-12.6 4-17.1A26.7 26.7 0 0 1 563 60.7v16.4c-3.9 0-7.6.5-11.1 1.4-3.4 1-6.2 2.5-8.3 4.6a11 11 0 0 0-3.2 8.2h-5Zm-12 33.7V61h17v64h-17Zm75.6 1.5c-6.7 0-12.6-1.4-17.8-4.2a31.4 31.4 0 0 1-12.2-11.9c-2.9-5.1-4.3-11-4.3-17.4 0-6.6 1.4-12.4 4.3-17.4 3-5 7-9 12-11.8 5.2-2.9 11-4.3 17.7-4.3 6.4 0 12.3 1.5 17.6 4.7 5.3 3.2 9 7.7 11.5 13.7l-15.9 5.6c-1.2-2.4-3-4.4-5.6-5.9a15.5 15.5 0 0 0-8.3-2.3c-3.2 0-6 .8-8.4 2.3a15.1 15.1 0 0 0-5.6 6.2c-1.4 2.6-2 5.7-2 9.2 0 3.5.6 6.6 2 9.2a16 16 0 0 0 22.5 6c2.6-1.6 4.5-3.7 5.7-6.4l16 5.7c-2.5 6-6.4 10.7-11.7 14-5.2 3.4-11 5-17.5 5Zm35.2-1.5V35.4H651V125h-17Zm69.9 0-1-11.8V61h16.8v64h-15.8Zm-43.4-31.2V61h16.9v32.8h-17Zm16.9 0c0 4.2.4 7.6 1.4 10a11 11 0 0 0 4.2 5.3c1.9 1 4 1.6 6.3 1.6 4.4 0 7.8-1.3 10-4 2.4-2.8 3.5-6.9 3.5-12.2h5.8c0 6.9-1 12.7-3 17.4-2.1 4.7-5 8.4-8.5 11a21.7 21.7 0 0 1-12.7 3.6 26 26 0 0 1-13-3c-3.6-2-6.4-5.2-8.2-9.5-1.8-4.4-2.7-10-2.7-16.8v-3.4h16.9Zm77 32.7a30.4 30.4 0 0 1-21-7.2 25 25 0 0 1-6.3-8.6l14.4-6.7c1.3 2 3 3.8 5.3 5.4 2.2 1.4 4.8 2.2 7.7 2.2 2.8 0 5-.4 6.5-1.2 1.5-.8 2.3-2 2.3-3.6 0-1.5-.6-2.6-2-3.3-1.1-.8-2.8-1.4-5-2l-5.8-1.5c-6.1-1.6-11-4.1-14.6-7.6A17.1 17.1 0 0 1 731 80a19 19 0 0 1 6.2-15.3 27.3 27.3 0 0 1 18-5.3c4.1 0 7.8.6 11.2 1.8 3.5 1.2 6.5 2.8 9 5 2.5 2 4.2 4.6 5.1 7.4l-14 6.4c-.5-1.7-2-3.1-4.3-4.1a15.8 15.8 0 0 0-7-1.7c-2.2 0-4 .5-5.3 1.5a4.8 4.8 0 0 0-1.8 4c0 1.1.6 2 1.8 2.8 1.2.7 3 1.3 5.1 1.8l8.3 2A22 22 0 0 1 778.7 99a20 20 0 0 1 1.8 8c0 4-1.1 7.3-3.4 10.3a21.7 21.7 0 0 1-9.2 6.8 33.6 33.6 0 0 1-13.2 2.4Zm33-1.5V61h16.8v64h-16.9Zm8.4-74.4c-2.6 0-4.8-1-6.8-2.8a9.5 9.5 0 0 1 0-13.7 9.3 9.3 0 0 1 13.6 0 9.5 9.5 0 0 1 0 13.7 9.2 9.2 0 0 1-6.8 2.8Zm41.4 74.4 24.3-64h17.5l-26.3 64h-15.5Zm-1.4 0-26.2-64h17.4l24.3 64H836Zm74.4 1.5c-6.3 0-12-1.4-16.8-4.2a31.5 31.5 0 0 1-11.5-11.9 36 36 0 0 1-4-17.4 35 35 0 0 1 4.1-17.4c3-5 6.9-9 11.8-11.8a34 34 0 0 1 17.3-4.3c5.6 0 10.8 1.5 15.5 4.4 4.8 3 8.6 7.3 11.4 13a44.6 44.6 0 0 1 4.3 20.6H894l1.5-1.6c0 3.2.8 6 2.4 8.4a17 17 0 0 0 6 5.3 19.1 19.1 0 0 0 16.9-.3c2.2-1.6 3.9-3.5 5-6l15.2 6a29 29 0 0 1-17.2 15.2c-3.9 1.4-8.4 2-13.4 2Zm-14-40-1.5-1.6h30.9l-1.5 1.6c0-3.1-.7-5.5-2.1-7.3a12.6 12.6 0 0 0-5.4-4.1 15.6 15.6 0 0 0-18 4 10.8 10.8 0 0 0-2.4 7.4Z"/><defs><linearGradient id="a" x1="108" x2="108" y1="0" y2="160" gradientUnits="userSpaceOnUse"><stop stop-color="#FCC230"/><stop offset="1" stop-color="#FC7E30"/></linearGradient></defs></svg>