<svg xmlns="http://www.w3.org/2000/svg" fill="none" viewBox="0 0 145 40"><path fill="#0A0A0A" d="M53 18.4V17l1.2-.2V8.8L53 8.5V7.3h4.2l3.2 7.9 3-8h4.3v1.3l-1.2.3v8l1.2.3v1.3h-4.5V17l1.3-.2V9.6L61 18.2h-1.6l-3.4-8.6V17l1.4.2v1.3H53Zm14.9 0V17h.8l3.6-9.8h2L78 17l.8.1v1.3H75V17l.8-.1-.6-1.7h-4l-.5 1.7.8.1v1.3h-3.7Zm4-4.6h3l-1.4-4-.1-.3-.2.3-1.4 4Zm7.7 4.6V17l1.2-.2V8.8l-1.2-.3V7.3h4.6v1.2l-1.4.3v8h3.4V15H88v3.3h-8.3Zm9.1 0V17L90 17V8.8l-1.2-.3V7.3h4.6v1.2l-1.3.3v8h3.3l.1-1.7H97v3.3h-8.3Zm14 .1A4.6 4.6 0 0 1 99 17c-.5-.5-.8-1-1-1.7a7 7 0 0 1-.4-2.3v-.2c0-.8.1-1.5.3-2.2.3-.7.6-1.3 1-1.8a4.6 4.6 0 0 1 3.6-1.6c.8 0 1.5.1 2 .4.7.3 1.2.7 1.6 1.2.5.5.8 1.1 1 1.8.3.7.4 1.4.4 2.2v.2a7 7 0 0 1-.4 2.3c-.2.6-.5 1.2-1 1.7a4.5 4.5 0 0 1-3.6 1.6Zm0-1.6c.6 0 1.1-.2 1.5-.5a3 3 0 0 0 1-1.4c.2-.6.3-1.3.3-2.1v-.2c0-.8 0-1.5-.3-2a3 3 0 0 0-1-1.4c-.4-.4-1-.6-1.6-.6-.6 0-1.1.2-1.6.6a3 3 0 0 0-1 1.3l-.2 2.1v.2c0 .8 0 1.5.3 2.1.2.6.5 1 1 1.4.4.3.9.5 1.5.5Zm5.8 1.5V17l1.2-.2V8.8l-1.2-.3V7.3h5.2c.9 0 1.6.1 2.2.4.6.2 1 .6 1.4 1 .3.6.5 1.2.5 1.8a3.2 3.2 0 0 1-1.8 3c-.6.2-1.3.4-2 .4h-2.2v3l1.2.2v1.3h-4.5Zm7.2 0-2-5 2-.4 1.6 4 1 .1v1.3h-2.6Zm-3.9-6.1h1.9c.7 0 1.2-.2 1.5-.5.3-.2.5-.7.5-1.2s-.2-1-.5-1.3c-.3-.3-.8-.4-1.5-.4h-1.9v3.4Zm12.7 6.2c-1.1 0-2-.2-2.8-.7a4.6 4.6 0 0 1-1.8-1.9c-.5-.8-.7-1.8-.7-3v-.2c0-1.1.2-2 .6-3a4.7 4.7 0 0 1 4.6-2.6c.7 0 1.4.1 2 .3.7.2 1.3.6 1.8 1V11h-1.6l-.2-1.7a2.8 2.8 0 0 0-1.2-.5 4 4 0 0 0-.8 0 2.8 2.8 0 0 0-2.7 1.8c-.3.6-.4 1.2-.4 2v.4c0 .8.1 1.5.4 2 .3.7.6 1.1 1.1 1.5.5.3 1 .4 1.7.4a4.6 4.6 0 0 0 1.9-.4l.2-1.5h1.5v2.6a6 6 0 0 1-1.5.7l-2.1.2Zm4.7-.1V17h.8l3.6-9.8h2l3.6 9.7.8.1v1.3h-3.6V17l.7-.1-.5-1.7h-4L132 17l.8.1v1.3h-3.6Zm3.9-4.6h3l-1.4-4v-.3h-.1l-.1.3-1.4 4ZM52.8 34.4V33l1-.2 3.2-4-3-4.2-.9-.2v-1.2h4.2v1.2l-1 .1 2 2.9 2-2.9h-1.1v-1.3h4.1v1.2l-1 .2-2.8 4 3.2 4.2 1 .2v1.3h-4.2V33h1l-2.2-3-2.3 3h1v1.3h-4.2Zm16.7.1c-1 0-2-.2-2.8-.7a4.6 4.6 0 0 1-1.8-1.9c-.4-.8-.7-1.8-.7-3v-.2c0-1.1.3-2 .7-3a4.7 4.7 0 0 1 4.5-2.6c.7 0 1.4.1 2 .3.7.2 1.3.6 1.8 1V27h-1.6l-.2-1.7a2.8 2.8 0 0 0-1.2-.5 4 4 0 0 0-.8 0 2.8 2.8 0 0 0-2.7 1.8c-.3.6-.4 1.2-.4 2v.4c0 .8.2 1.5.4 2 .3.7.6 1.1 1.1 1.5.5.3 1 .4 1.7.4a4.6 4.6 0 0 0 1.9-.4l.2-1.5h1.6v2.6a6 6 0 0 1-1.6.7l-2 .2Zm4.8-.1V33l1.2-.2v-8.1l-1.2-.3v-1.2h4.6v1.2l-1.3.3v8h3.3L81 31h1.6v3.3h-8.3Zm14 .1c-.8 0-1.6-.1-2.2-.4-.7-.3-1.2-.8-1.5-1.3-.4-.6-.6-1.3-.6-2.1v-6l-1.2-.2v-1.2h4.5v1.2l-1.2.3v5.9c0 .5 0 .9.3 1.2.1.4.4.6.8.8l1.2.2c.4 0 .8 0 1.2-.2.3-.2.6-.4.8-.8.2-.3.3-.7.3-1.2v-6l-1.2-.2v-1.2h4.4v1.2l-1.2.3v5.9c0 .8-.1 1.5-.5 2-.4.6-.9 1-1.5 1.4-.7.3-1.5.4-2.3.4Zm10.9 0c-.8 0-1.5 0-2.2-.2-.7-.2-1.3-.5-2-1v-2.6h1.7l.2 1.6 1 .5 1.3.1 1-.1c.3-.1.6-.3.7-.5.2-.3.2-.5.2-.8 0-.3 0-.6-.2-.8l-.6-.6a6 6 0 0 0-1.3-.5c-.9-.2-1.6-.5-2.1-.8-.6-.3-1-.6-1.3-1-.3-.5-.4-1-.4-1.6 0-.6.1-1.1.4-1.6.4-.5.8-.8 1.4-1a6.7 6.7 0 0 1 4.2 0c.7 0 1.3.3 1.7.7v2.5h-1.5l-.3-1.6-.8-.3a4 4 0 0 0-1.2-.2c-.3 0-.7 0-1 .2l-.6.5c-.2.2-.3.5-.3.8 0 .2 0 .5.2.7.2.2.4.4.8.5.3.2.7.4 1.3.5 1.2.4 2.2.8 2.8 1.4.6.5 1 1.3 1 2.2 0 .6-.2 1.1-.6 1.6-.3.5-.8.8-1.4 1-.6.3-1.3.4-2.1.4Zm5-.1V33l1.2-.2v-8.1l-1.2-.3v-1.2h4.5v1.2l-1.2.3v8l1.2.3v1.3h-4.5Zm9.8 0-3.6-9.8h-1v-1.3h4.3v1.2l-1 .2 2.2 6.6.2.7.2-.6 2.3-6.7-1.2-.2v-1.2h4v1.2l-.9.1-3.4 9.8h-2Zm7.3 0V33l1.2-.2v-8.1l-1.2-.3v-1.2h8.5v2.9h-1.6l-.1-1.3h-3.6v3h3.9v1.5h-3.9v3.4h3.8l.1-1.4h1.6v3h-8.7Z"/><rect width="40" height="40" x="5" fill="#FCC230" rx="6.3"/><path fill="#000" d="m5.1 24-.4-.5-.3-.3-.4-.1-.2-.2v-.4l.2-.2.2-.1V21.9l-.1-.2-.2-.2-.3-.1-.2-.3a5.5 5.5 0 0 1 .2-.3l.2-.1v-.5l-.1-.1h-.3l-.1-.1-.2-.2-.1-.1h-.7l-.6.2-.5-.1-.3-.3-.5-.5-.3-.3A22.1 22.1 0 0 0 0 18V16.8l.5-.9.5-.4.9-.4.8-.3.7-.4.5-.2.8-.2.6-.4 1.2-.8.6-.4.3-.3.5-.1h.7l.5-.1.5-.1.5-.3.4-.1.4-.4.3-.3.5-.5.4-.3.4-.1.4-.2.3-.3.2-.3.2-.3.4-.3.3-.2h.3l.2.2.3.2a1.8 1.8 0 0 0 .3-.2l.2-.3s0-.4.2-.4l.2-.3.3-.1a5.6 5.6 0 0 0 .5 0h.2l.3.2a4 4 0 0 0 .3 0l.4-.3.4-.5.3-.3.3-.3a4.6 4.6 0 0 1 .4-.1h.5l.3-.2H22v-.1l.5-.1s.4 0 .5-.2a3.4 3.4 0 0 1 .8-.3h.5a6.7 6.7 0 0 1 .6-.1l.3-.2.3-.2.3-.3h.4l.3.1.2.1.4.2a45.3 45.3 0 0 0 1-.2 8 8 0 0 0 .4-.2l.3-.2.2-.3h.4a2 2 0 0 0 .6.4l.4.3.7.1h1.1l.4-.1.6-.2.2-.2a15 15 0 0 0 .3-.3l.2-.2.2-.1a4.6 4.6 0 0 1 .4-.2h.3l.2-.1h.2l.5.2.2.3v.6l-.2.1-.2.2-.2.2-.4.2a7.9 7.9 0 0 1-.4 0l-.2.1-.3.1-.3.1-.2.2-.3.2-.2.1a8.3 8.3 0 0 0-.5.1H32l-.2-.1h-.7l-.3.2-.2.1-.2.2V7.2l.2.3a10.3 10.3 0 0 1 .2.4l.2.1.2.2a6.4 6.4 0 0 0 .5.1h.8v-.1L33 8l.2-.4.2-.2.3-.2.2-.1H34.2l.1.1.2.2.1.2.2.2a1.7 1.7 0 0 1 .1.4V9h-.1l-.1.2-.2.2-.2.3H34l-.2.2-.1.1h-.3a58.6 58.6 0 0 1-1-.3h-.2v.1h-.4l-.2.1-.1.3v.4a1 1 0 0 0 0 .3v.5h.1l.1.1.2.4.1.2.1.5.4.4a28.9 28.9 0 0 0 .6.5l.6.4.3.4.3.2.3.3.2.3.4.2h1a2.9 2.9 0 0 1 .3-.3h.8l.2-.2h.5l.2-.3.2-.2.3-.3.1-.3a50.7 50.7 0 0 1 .8-.3h.5v.1a3 3 0 0 0 .5.4 3 3 0 0 0 .1.4l.2.2.4.3.2.1H41.8l.3.3.2.2.3.4.3.4.2.3a1.7 1.7 0 0 1 .3.1l.3.3v.9l-.3.4-.1.2-.2.3a3 3 0 0 1-.3.3v.2l-.2.3-.2.3-.1.2a3.1 3.1 0 0 1-.1.3v.4l-.1.3v.2l-.3.3-.2.2-.2.1h-.2l-.1-.1-.2-.1H40.6l-.2.3-.2.2a4 4 0 0 1-.1.4v1.2a3.7 3.7 0 0 1-.2.5l-.2.2-.3.2-.3.2-1 .4-.8.5-.5.3-.5.4-.4.4-.4.3-.5.5-.3.4-.3.6-.1.7-.1.6-.2.7-.1.5-.2.5-.5.6-.5.6-.5.5-.7.4-.6.5-.5.4-.5.2h-.5l-.2.2h-.4l-.4-.1h-.3v-.1h-.2l-.4.2-.5.2-.4.2-.5.6-.4.5-.3.3-.2.3-.3.2-.3.1H23.8l-.3-.3-.2-.2-.1-.4v-.4l-.1-.4-.2-.3-.4-.4-.3-.2-.2-.2-.4-.4v-.5a7 7 0 0 1 .2-.3h.2v-.1l.1-.2v-.3l-.4-.3-.5-.4-.4-.3-.3-.1-.4-.2h-.5l-.4-.1h-.6l-.6.1h-.5a19 19 0 0 0-.8-.1h-1.1a17.7 17.7 0 0 0-.7-.4 16 16 0 0 1-.3-1l-.3-.3a9 9 0 0 1-.6-.9l-.4-.5V25.3l.1-.6.4-.5a27.6 27.6 0 0 0 .2-.4l.1-.4v-1l-.1-.3-.2-.2-.1-.3a1.8 1.8 0 0 0-.1-.3l-.3-.4-.4-.3-.4-.1-.3-.2-.5-.1h-.3a8.2 8.2 0 0 0-.6 0h-.3l-.3.2-.4.1H8.4l-.3.1-.1.2-.1.1h-.5a3.5 3.5 0 0 0-.3.2l-.3.3-.2.2-.2.3v.2s-.1 0 0 0v.6a8.8 8.8 0 0 0-.3.5l-.2.2v.2l-.3.2h-.2l-.2.1H5Z"/></svg>