<svg xmlns="http://www.w3.org/2000/svg" fill="none" viewBox="0 0 555 120"><path fill="#003B71" d="M0 0h554.9v119.8H0z"/><path fill="#fff" d="M11.9 11.4H543v97H11.9v-97ZM8 111.8h539V8H8v103.8Z"/><path fill="#fff" d="M275.5 38.6h-1.7v42h1.7v-42ZM42 60.8c.9.3 2.5.7 4.6.7 4.1 0 9.1-2.2 9.1-10.2 0-6.8-4.3-9.7-9.5-9.7-1.7 0-3 .3-3.5.8-.5.4-.7 1.2-.7 3v15.4Zm5.1-21c4.5 0 8.1.7 10.6 2.6 2.5 1.8 4.1 4.7 4.1 8.9 0 8-6.1 12-12.3 12.9h-2.8L42 63v9.9c0 5.3.6 5.6 6.3 6v1.8h-17v-1.8c5-.4 5.6-.9 5.6-6.1V47.6c0-5.5-.5-5.8-5.1-6v-1.8h15.3ZM79.6 47.1h-.2l-5.8 16H85l-5.5-16Zm6.2 33.6v-1.8c3.9-.5 4.5-1 3.6-3.4L86 65.9H72.7c-1 2.8-2 5.4-2.7 8-1.4 4-.8 4.6 3.8 5v1.7H60.2V79c4-.6 4.8-1 7-6.5l13-33 2-.6c3.8 10.8 8 22.8 12 33.7 2 5.4 2.8 6 6.9 6.4v1.7H85.8ZM136 70.8c-.4 2-1.7 8-2.3 9.9h-29.2v-1.8c5.2-.4 5.7-.8 5.7-6.2V47.6c0-5.4-.5-5.7-5.7-6v-1.8h17v1.7c-5 .4-5.6.7-5.6 6v25c0 3.3.3 4.6 1.4 5.2 1.3.7 3.5.8 6.3.8 3.5 0 5.7-.3 7.2-2 1-1.2 2.3-3.2 3.3-6l2 .3h-.1ZM173.8 80.7v-2c5-.5 5.2-.8 5.1-7.5l-.2-25.8h-.2l-14.8 34.7H162l-14-33.5h-.4l-1 18c-.2 5-.2 7.9-.2 10.4.2 3 1.7 3.4 5.8 3.9v1.8H138v-2c3.5-.4 4.7-1 5.2-3.7.3-2.2.7-5 1.2-11.5l.8-13.1c.6-8.2.3-8.4-5.5-9v-1.6h10.4L164.4 71 179 39.8h10.7v1.6c-5.6.5-6 .6-5.8 7l.6 22.9c.2 6.7 5.8 7.5 5.8 7.5v1.9h-16.5ZM213 47.1h-.1l-5.9 16h11.5L213 47Zm6.2 33.6v-1.8c4-.5 4.5-1 3.7-3.4l-3.4-9.6h-13.3c-1 2.8-2 5.4-2.8 8-1.3 4-.8 4.6 4 5v1.7h-13.7V79c4-.6 4.8-1 7-6.5l13-33 1.9-.6c3.9 10.8 8 22.8 12 33.7 2 5.4 2.9 6 7 6.4v1.7h-15.4ZM330.9 72.7c0 4.5 1.2 5.7 5.2 5.7 5.2 0 9.8-2.7 9.8-9.2 0-6.6-4.4-9.3-12.1-9.3h-2.9v12.8Zm3-15.1c6.9 0 9.8-2.8 9.8-8 0-4.3-2.4-8.1-8.4-8.1-1.6 0-3 .2-3.6.6-.6.4-.8 1-.8 3.2v12.3h3Zm6.7.7c6.1 1 11 3.7 11 10 0 4.2-2.3 7.4-6 9.5a25.2 25.2 0 0 1-12.2 2.5h-13.9v-1.7c5.4-.4 5.7-.8 5.7-6V47.2c0-5-.2-5.5-5-5.8v-2h16c4.6 0 7.4.7 9.3 2a8.6 8.6 0 0 1 3.5 7.2c0 6-5 8.5-8.4 9.4v.2ZM388.7 70.4c-.4 2-1.6 8-2.2 10H356v-1.8c5.7-.5 6.2-1 6.2-6V47.7c0-6-.5-6.1-5.6-6.6v-1.8h28.1l.5 9.4-1.8.3c-.6-2.7-1.2-4.1-2-5.6-1-1.3-2.6-1.8-7.2-1.8h-4.8c-2 0-2 .1-2 2v14.5h6c5.7 0 6-.5 6.9-4.6h1.8v12h-1.9c-.8-4.7-1.3-5.1-7-5.1h-5.3v11.8c0 3 .4 4.3 1.5 5 1.2.8 3.4.9 6.6.9 4.7 0 6.5-.5 7.9-2.1a18 18 0 0 0 3-6l1.9.3ZM410.7 46.8h-.1l-6 15.9h11.6l-5.5-15.9Zm6 33.5v-1.7c3.9-.5 4.5-1 3.7-3.5l-3.5-9.6h-13.3c-1 2.8-2 5.5-2.7 8-1.4 4-.8 4.6 3.8 5v1.8h-13.6v-1.8c4-.5 4.8-.9 7-6.4l13-33 2-.7 12 33.8c2 5.4 2.8 6 6.9 6.3v1.8h-15.3ZM472.1 70.1a68 68 0 0 1-3.6 9.7 53 53 0 0 1-11.6 1.7c-15.6 0-22.5-10.9-22.5-20.9 0-13.2 10.2-22 24.3-22 5 0 9.3 1.5 11 1.8.6 3.6 1 6 1.4 9.5l-2 .4c-1.6-6.7-5.4-9.4-12.2-9.4-10.5 0-16 9-16 18.5 0 11.7 6.9 19.8 16.4 19.8 6.4 0 9.8-3.5 13-9.8l1.8.7ZM519.5 41.2c-5.2.4-5.7.7-5.7 6v25.4c0 5.3.5 5.6 5.7 6v1.7h-17v-1.8c5-.3 5.6-.7 5.6-6V60h-21v12.6c0 5.3.5 5.7 5.7 6v1.8h-17v-1.7c5.1-.4 5.6-.7 5.6-6V47.2c0-5.3-.5-5.6-5.7-6v-1.8h16.5v1.8c-4.6.5-5.1.8-5.1 6v10.4h21.6V47.3c0-5.3-.6-5.6-5.7-6v-1.9h16.5v1.8Z"/></svg>